<svg viewBox="0 0 800 350" xmlns="http://www.w3.org/2000/svg">
  <defs>
    <!-- Soft, Premium Dark Background Gradient -->
    <radialGradient id="bg-grad" cx="50%" cy="50%" r="70%">
      <stop offset="0%" stop-color="#0e1326" />
      <stop offset="60%" stop-color="#070a13" />
      <stop offset="100%" stop-color="#030407" />
    </radialGradient>

    <!-- Official Antigravity Rainbow Gradient -->
    <linearGradient id="rainbow-grad" x1="0%" y1="100%" x2="0%" y2="0%">
      <stop offset="0%" stop-color="#38bdf8" />
      <stop offset="25%" stop-color="#2563eb" />
      <stop offset="55%" stop-color="#10b981" />
      <stop offset="80%" stop-color="#f59e0b" />
      <stop offset="100%" stop-color="#ef4444" />
    </linearGradient>

    <!-- Clip Paths for Claude's Eyes -->
    <clipPath id="left-eye-clip">
      <rect x="-24" y="-16" width="8" height="16" />
    </clipPath>
    <clipPath id="right-eye-clip">
      <rect x="16" y="-16" width="8" height="16" />
    </clipPath>

    <!-- Soft Drop Shadow Filter for White Dialogue Bubbles -->
    <filter id="soft-shadow" x="-20%" y="-20%" width="140%" height="140%">
      <feDropShadow dx="0" dy="4" stdDeviation="5" flood-color="#000000" flood-opacity="0.22" />
    </filter>

    <!-- Soft Blur Filter for Active Agent Glows -->
    <filter id="glow-blur" x="-50%" y="-50%" width="200%" height="200%">
      <feGaussianBlur stdDeviation="5" />
    </filter>

    <!-- Clean Antigravity Rainbow Agent (Flat wishbone logo) -->
    <g id="rainbow-agent">
      <path d="M -19,17 C -21,19 -19,14 -16,9 C -12,1 -7,-9 -3,-16 C -1.5,-19 -1,-20 0,-20 C 1,-20 1.5,-19 3,-16 C 7,-9 12,1 16,9 C 19,14 21,19 19,17 C 17,16 15,15 12.5,11 C 9,5 4,-5 0,-5 C -4,-5 -9,5 -12.5,11 C -15,15 -17,16 -19,17 Z"
            fill="url(#rainbow-grad)" />
    </g>

    <!-- Codex blue→indigo gradient (cloud blob) -->
    <linearGradient id="codex-grad" x1="0%" y1="0%" x2="100%" y2="100%">
      <stop offset="0%" stop-color="#a9c7ff" />
      <stop offset="45%" stop-color="#4f7cf7" />
      <stop offset="100%" stop-color="#5b54e8" />
    </linearGradient>

    <!-- Codex Agent (soft cloud blob with a terminal >_ prompt) -->
    <g id="codex-agent">
      <path d="M 0.0,-19.0 C 2.7,-19.0 5.4,-15.6 8.1,-14.0 C 10.8,-12.4 15.1,-11.8 16.5,-9.5 C 17.8,-7.2 16.2,-3.2 16.2,0.0 C 16.2,3.2 17.8,7.2 16.5,9.5 C 15.1,11.8 10.8,12.4 8.1,14.0 C 5.4,15.6 2.7,19.0 0.0,19.0 C -2.7,19.0 -5.4,15.6 -8.1,14.0 C -10.8,12.4 -15.1,11.8 -16.5,9.5 C -17.8,7.2 -16.2,3.2 -16.2,0.0 C -16.2,-3.2 -17.8,-7.2 -16.5,-9.5 C -15.1,-11.8 -10.8,-12.4 -8.1,-14.0 C -5.4,-15.6 -2.7,-19.0 0.0,-19.0 Z"
            fill="url(#codex-grad)" />
      <!-- terminal prompt: chevron > and underscore _ -->
      <path d="M -7,-5.5 L 0.5,0.5 L -7,6.5" fill="none" stroke="#ffffff" stroke-width="2.4" stroke-linecap="round" stroke-linejoin="round" />
      <line x1="3.5" y1="7.5" x2="9.5" y2="7.5" stroke="#ffffff" stroke-width="2.4" stroke-linecap="round" />
    </g>
  </defs>

  <style>
    /* ==========================================================================
       CSS Animations (15s Loop: Sequential Send -> Joint Work -> Sequential Return)
       ========================================================================= */

    /* Claude bobbing and jumping (gentle vertical movement) */
    @keyframes claude-body-anim {
      0%, 82%, 100% { transform: translate(400px, 180px) scale(1.5) translateY(0px); }
      /* Cute jumps during success celebration (83% - 98%) */
      84%, 90%, 96% { transform: translate(400px, 180px) scale(1.5) translateY(-8px); }
      87%, 93%, 98% { transform: translate(400px, 180px) scale(1.5) translateY(0px); }
    }
    .claude-crab-group {
      animation: claude-body-anim 15s ease-in-out infinite;
    }

    /* Claude Left Arm Waving (Gentle rotate, origin matches body edge) */
    @keyframes claude-left-arm {
      0%, 100% { transform: rotate(0deg); }
      3%, 10% { transform: rotate(18deg); }
      11%, 17% { transform: rotate(0deg); }
      17%, 24% { transform: rotate(18deg); }
      25%, 31% { transform: rotate(18deg); }
      32%, 82% { transform: rotate(0deg); }
      /* Celebration waving */
      83%, 89%, 95% { transform: rotate(20deg); }
      86%, 92%, 98% { transform: rotate(-5deg); }
    }
    .claude-left-arm {
      transform-origin: -40px 4px;
      animation: claude-left-arm 15s ease-in-out infinite;
    }

    /* Claude Right Arm Waving (Gentle rotate, origin matches body edge) */
    @keyframes claude-right-arm {
      0%, 100% { transform: rotate(0deg); }
      10%, 17% { transform: rotate(-18deg); }
      18%, 24% { transform: rotate(-18deg); }
      25%, 31% { transform: rotate(-18deg); }
      32%, 82% { transform: rotate(0deg); }
      /* Celebration waving */
      83%, 89%, 95% { transform: rotate(-20deg); }
      86%, 92%, 98% { transform: rotate(5deg); }
    }
    .claude-right-arm {
      transform-origin: 40px 4px;
      animation: claude-right-arm 15s ease-in-out infinite;
    }

    /* Claude Eye Movement (Look direction tracking + happy jitter) */
    @keyframes claude-eyes-look {
      0%, 9%, 82%, 100% { transform: translate(0px, 0px); }
      33%, 43% { transform: translate(-2px, 0px); }
      46%, 56% { transform: translate(2px, 0px); }
      56.5% { transform: translate(0px, 0px); }
      57%, 62% { transform: translate(-2px, 0px); }
      63%, 69% { transform: translate(2px, 0px); }
      70%, 76% { transform: translate(2px, 2px); }
      77%, 81% { transform: translate(-2px, 2px); }
      /* Happy jitter eyes during jumps */
      83%, 87%, 91%, 95% { transform: translate(0px, -3px); }
      85%, 89%, 93%, 97% { transform: translate(0px, 1px); }
    }
    .eye-cutout {
      animation: claude-eyes-look 15s ease-in-out infinite;
    }

    /* Claude Eye Blinking (Cute vertical squish) */
    @keyframes eye-blink {
      0%, 46%, 54%, 100% { transform: scaleY(1); }
      50% { transform: scaleY(0.1); }
    }
    .eye-group {
      transform-box: fill-box;
      transform-origin: center;
      animation: eye-blink 4s ease-in-out infinite;
    }

    /* Blinking indicator dot */
    @keyframes blink-rec {
      50% { opacity: 0.25; }
    }
    .rec-dot {
      animation: blink-rec 1s infinite;
    }

    /* ==================== CLEAN CONNECTING ARCS ==================== */
    @keyframes beam1-pulse {
      0%, 9%, 62%, 100% { opacity: 0.08; stroke: #334155; }
      14%, 57% { opacity: 0.55; stroke: #38bdf8; }
    }
    .beam-1 { animation: beam1-pulse 15s ease-in-out infinite; }

    @keyframes beam2-pulse {
      0%, 16%, 68%, 100% { opacity: 0.08; stroke: #334155; }
      21%, 63% { opacity: 0.55; stroke: #38bdf8; }
    }
    .beam-2 { animation: beam2-pulse 15s ease-in-out infinite; }

    @keyframes beam3-pulse {
      0%, 23%, 75%, 100% { opacity: 0.08; stroke: #334155; }
      28%, 70% { opacity: 0.55; stroke: #38bdf8; }
    }
    .beam-3 { animation: beam3-pulse 15s ease-in-out infinite; }

    @keyframes beam4-pulse {
      0%, 30%, 82%, 100% { opacity: 0.08; stroke: #334155; }
      35%, 77% { opacity: 0.55; stroke: #38bdf8; }
    }
    .beam-4 { animation: beam4-pulse 15s ease-in-out infinite; }


    /* ==================== SINGLE DISPATCH AND RETURN LASER FLOWS ==================== */
    @keyframes beam1-flow {
      0%, 9.9% { stroke-dashoffset: 0; opacity: 0; }
      10% { opacity: 1; }
      14% { stroke-dashoffset: -320; opacity: 0; }
      14.1%, 100% { opacity: 0; }
    }
    .beam-flow-1 { animation: beam1-flow 15s ease-in-out infinite; }

    @keyframes beam1-flow-rev {
      0%, 56.9% { stroke-dashoffset: -320; opacity: 0; }
      57% { opacity: 1; }
      61% { stroke-dashoffset: 0; opacity: 0; }
      61.1%, 100% { opacity: 0; }
    }
    .beam-flow-1-rev { animation: beam1-flow-rev 15s ease-in-out infinite; }

    @keyframes beam2-flow {
      0%, 16.9% { stroke-dashoffset: 0; opacity: 0; }
      17% { opacity: 1; }
      21% { stroke-dashoffset: -320; opacity: 0; }
      21.1%, 100% { opacity: 0; }
    }
    .beam-flow-2 { animation: beam2-flow 15s ease-in-out infinite; }

    @keyframes beam2-flow-rev {
      0%, 62.9% { stroke-dashoffset: -320; opacity: 0; }
      63% { opacity: 1; }
      67% { stroke-dashoffset: 0; opacity: 0; }
      67.1%, 100% { opacity: 0; }
    }
    .beam-flow-2-rev { animation: beam2-flow-rev 15s ease-in-out infinite; }

    @keyframes beam3-flow {
      0%, 23.9% { stroke-dashoffset: 0; opacity: 0; }
      24% { opacity: 1; }
      28% { stroke-dashoffset: -320; opacity: 0; }
      28.1%, 100% { opacity: 0; }
    }
    .beam-flow-3 { animation: beam3-flow 15s ease-in-out infinite; }

    @keyframes beam3-flow-rev {
      0%, 69.9% { stroke-dashoffset: -320; opacity: 0; }
      70% { opacity: 1; }
      74% { stroke-dashoffset: 0; opacity: 0; }
      74.1%, 100% { opacity: 0; }
    }
    .beam-flow-3-rev { animation: beam3-flow-rev 15s ease-in-out infinite; }

    @keyframes beam4-flow {
      0%, 30.9% { stroke-dashoffset: 0; opacity: 0; }
      31% { opacity: 1; }
      35% { stroke-dashoffset: -320; opacity: 0; }
      35.1%, 100% { opacity: 0; }
    }
    .beam-flow-4 { animation: beam4-flow 15s ease-in-out infinite; }

    @keyframes beam4-flow-rev {
      0%, 76.9% { stroke-dashoffset: -320; opacity: 0; }
      77% { opacity: 1; }
      81% { stroke-dashoffset: 0; opacity: 0; }
      81.1%, 100% { opacity: 0; }
    }
    .beam-flow-4-rev { animation: beam4-flow-rev 15s ease-in-out infinite; }


    /* ==================== CLAUDE DIALOGUE BUBBLES ==================== */
    
    /* Bubble 1 (read server.py) - 3% to 10% */
    @keyframes claude-bubble-cmd1 {
      0%, 11%, 100% { opacity: 0; transform: scale(0.9); }
      4%, 9% { opacity: 1; transform: scale(1); }
    }
    .claude-bubble-cmd-1 {
      transform-origin: 400px 105px;
      animation: claude-bubble-cmd1 15s ease-in-out infinite;
    }

    /* Bubble 2 (compile server.py) - 10% to 17% */
    @keyframes claude-bubble-cmd2 {
      0%, 9.5%, 18%, 100% { opacity: 0; transform: scale(0.9); }
      11.5%, 15.5% { opacity: 1; transform: scale(1); }
    }
    .claude-bubble-cmd-2 {
      transform-origin: 400px 105px;
      animation: claude-bubble-cmd2 15s ease-in-out infinite;
    }

    /* Bubble 3 (write changes) - 17% to 24% */
    @keyframes claude-bubble-cmd3 {
      0%, 16.5%, 25%, 100% { opacity: 0; transform: scale(0.9); }
      18.5%, 23% { opacity: 1; transform: scale(1); }
    }
    .claude-bubble-cmd-3 {
      transform-origin: 400px 105px;
      animation: claude-bubble-cmd3 15s ease-in-out infinite;
    }

    /* Bubble 4 (run tests) - 24% to 31% */
    @keyframes claude-bubble-cmd4 {
      0%, 23.5%, 32%, 100% { opacity: 0; transform: scale(0.9); }
      25.5%, 30% { opacity: 1; transform: scale(1); }
    }
    .claude-bubble-cmd-4 {
      transform-origin: 400px 105px;
      animation: claude-bubble-cmd4 15s ease-in-out infinite;
    }

    /* Bubble 5 (Success! All tests passed!) - 82% to 95% */
    @keyframes claude-bubble-success {
      0%, 81%, 97%, 100% { opacity: 0; transform: scale(0.9); }
      83%, 94% { opacity: 1; transform: scale(1); }
    }
    .claude-bubble-success {
      transform-origin: 400px 105px;
      animation: claude-bubble-success 15s ease-in-out infinite;
    }


    /* ==================== ANTIGRAVITY AGENTS (STABLE, FLUID MOVEMENT) ==================== */

    /* Agent 1 (Top-Left) */
    @keyframes agent1-anim {
      0%, 10%, 61%, 100% { transform: translate(280px, 130px); }
      14%, 57% { transform: translate(100px, 80px); }
    }
    .agent1 { animation: agent1-anim 15s ease-in-out infinite; }

    @keyframes agent1-work-bubble-anim {
      0%, 13%, 58%, 100% { opacity: 0; transform: scale(0.9); }
      15%, 56% { opacity: 1; transform: scale(1); }
    }
    .agent1-work {
      transform-origin: 0px -35px;
      animation: agent1-work-bubble-anim 15s ease-in-out infinite;
    }

    @keyframes agent1-done-bubble-anim {
      0%, 60%, 83%, 100% { opacity: 0; transform: scale(0.9); }
      62%, 81% { opacity: 1; transform: scale(1); }
    }
    .agent1-done {
      transform-origin: 0px -35px;
      animation: agent1-done-bubble-anim 15s ease-in-out infinite;
    }


    /* Agent 2 (Top-Right) */
    @keyframes agent2-anim {
      0%, 17%, 67%, 100% { transform: translate(520px, 130px); }
      21%, 63% { transform: translate(700px, 80px); }
    }
    .agent2 { animation: agent2-anim 15s ease-in-out infinite; }

    @keyframes agent2-work-bubble-anim {
      0%, 20%, 64%, 100% { opacity: 0; transform: scale(0.9); }
      22%, 62% { opacity: 1; transform: scale(1); }
    }
    .agent2-work {
      transform-origin: 0px -35px;
      animation: agent2-work-bubble-anim 15s ease-in-out infinite;
    }

    @keyframes agent2-done-bubble-anim {
      0%, 66%, 83%, 100% { opacity: 0; transform: scale(0.9); }
      68%, 81% { opacity: 1; transform: scale(1); }
    }
    .agent2-done {
      transform-origin: 0px -35px;
      animation: agent2-done-bubble-anim 15s ease-in-out infinite;
    }


    /* Agent 3 (Bottom-Right) */
    @keyframes agent3-anim {
      0%, 24%, 74%, 100% { transform: translate(490px, 230px); }
      28%, 70% { transform: translate(680px, 250px); }
    }
    .agent3 { animation: agent3-anim 15s ease-in-out infinite; }

    @keyframes agent3-work-bubble-anim {
      0%, 27%, 71%, 100% { opacity: 0; transform: scale(0.9); }
      29%, 69% { opacity: 1; transform: scale(1); }
    }
    .agent3-work {
      transform-origin: 0px -35px;
      animation: agent3-work-bubble-anim 15s ease-in-out infinite;
    }

    @keyframes agent3-done-bubble-anim {
      0%, 73%, 83%, 100% { opacity: 0; transform: scale(0.9); }
      75%, 81% { opacity: 1; transform: scale(1); }
    }
    .agent3-done {
      transform-origin: 0px -35px;
      animation: agent3-done-bubble-anim 15s ease-in-out infinite;
    }


    /* Agent 4 (Bottom-Left) */
    @keyframes agent4-anim {
      0%, 31%, 81%, 100% { transform: translate(310px, 230px); }
      35%, 77% { transform: translate(120px, 250px); }
    }
    .agent4 { animation: agent4-anim 15s ease-in-out infinite; }

    @keyframes agent4-work-bubble-anim {
      0%, 34%, 78%, 100% { opacity: 0; transform: scale(0.9); }
      36%, 76% { opacity: 1; transform: scale(1); }
    }
    .agent4-work {
      transform-origin: 0px -35px;
      animation: agent4-work-bubble-anim 15s ease-in-out infinite;
    }

    @keyframes agent4-done-bubble-anim {
      0%, 80%, 89%, 100% { opacity: 0; transform: scale(0.9); }
      82%, 87% { opacity: 1; transform: scale(1); }
    }
    .agent4-done {
      transform-origin: 0px -35px;
      animation: agent4-done-bubble-anim 15s ease-in-out infinite;
    }


    /* ==================== SQUADRON HOVER BOBBING ==================== */
    @keyframes hover-bob {
      0%, 100% { transform: translateY(0px); }
      50% { transform: translateY(-5px); }
    }
    .agent-hover-1 { animation: hover-bob 2.0s ease-in-out infinite; }
    .agent-hover-2 { animation: hover-bob 2.3s ease-in-out infinite; animation-delay: 0.3s; }
    .agent-hover-3 { animation: hover-bob 2.1s ease-in-out infinite; animation-delay: 0.6s; }
    .agent-hover-4 { animation: hover-bob 2.5s ease-in-out infinite; animation-delay: 0.9s; }

    /* ==================== ACTIVE AGENT GLOWS ==================== */
    @keyframes agent1-glow-anim {
      0%, 13%, 58%, 100% { opacity: 0; transform: scale(0.6); }
      15%, 35%, 55% { opacity: 0.25; transform: scale(1.1); }
      25%, 45% { opacity: 0.12; transform: scale(0.9); }
    }
    .agent1-glow {
      transform-origin: 0px 0px;
      animation: agent1-glow-anim 15s ease-in-out infinite;
    }

    @keyframes agent2-glow-anim {
      0%, 20%, 64%, 100% { opacity: 0; transform: scale(0.6); }
      22%, 42%, 62% { opacity: 0.25; transform: scale(1.1); }
      32%, 52% { opacity: 0.12; transform: scale(0.9); }
    }
    .agent2-glow {
      transform-origin: 0px 0px;
      animation: agent2-glow-anim 15s ease-in-out infinite;
    }

    @keyframes agent3-glow-anim {
      0%, 27%, 71%, 100% { opacity: 0; transform: scale(0.6); }
      29%, 49%, 69% { opacity: 0.25; transform: scale(1.1); }
      39%, 59% { opacity: 0.12; transform: scale(0.9); }
    }
    .agent3-glow {
      transform-origin: 0px 0px;
      animation: agent3-glow-anim 15s ease-in-out infinite;
    }

    @keyframes agent4-glow-anim {
      0%, 34%, 78%, 100% { opacity: 0; transform: scale(0.6); }
      36%, 56%, 76% { opacity: 0.25; transform: scale(1.1); }
      46%, 66% { opacity: 0.12; transform: scale(0.9); }
    }
    .agent4-glow {
      transform-origin: 0px 0px;
      animation: agent4-glow-anim 15s ease-in-out infinite;
    }

    /* ==================== CLAUDE HAPPY BLUSH ==================== */
    @keyframes claude-blush-anim {
      0%, 82%, 100% { opacity: 0; }
      83%, 95% { opacity: 0.75; }
    }
    .claude-blush {
      animation: claude-blush-anim 15s ease-in-out infinite;
    }
  </style>

  <!-- Deep Premium Dark Background -->
  <rect width="100%" height="100%" fill="url(#bg-grad)" />

  <!-- Subtle Backdrop Glows -->
  <circle cx="400" cy="180" r="120" fill="#ff7a59" opacity="0.04" />
  <circle cx="100" cy="80" r="70" fill="#38bdf8" opacity="0.03" />
  <circle cx="700" cy="80" r="70" fill="#38bdf8" opacity="0.03" />
  <circle cx="680" cy="250" r="70" fill="#38bdf8" opacity="0.03" />
  <circle cx="120" cy="250" r="70" fill="#38bdf8" opacity="0.03" />

  <!-- Static Faint Hologram Guideline under Claude -->
  <ellipse cx="400" cy="208" rx="42" ry="10" fill="none" stroke="#ff7a59" stroke-width="1" stroke-dasharray="6 4" opacity="0.2" />

  <!-- ==================== GRACEFUL CURVED CONNECTING ARCS ==================== -->
  <g>
    <!-- Background Faint Lines -->
    <path d="M 400 180 Q 250 100 100 80" fill="none" stroke-width="1" stroke-dasharray="4 4" class="beam-1" />
    <path d="M 400 180 Q 550 100 700 80" fill="none" stroke-width="1" stroke-dasharray="4 4" class="beam-2" />
    <path d="M 400 180 Q 540 220 680 250" fill="none" stroke-width="1" stroke-dasharray="4 4" class="beam-3" />
    <path d="M 400 180 Q 260 220 120 250" fill="none" stroke-width="1" stroke-dasharray="4 4" class="beam-4" />

    <!-- Dispatch Glows (Claude -> Agents) -->
    <path d="M 400 180 Q 250 100 100 80" fill="none" stroke="rgba(6, 182, 212, 0.4)" stroke-width="4.5" stroke-dasharray="12 320" stroke-linecap="round" class="beam-flow-1" />
    <path d="M 400 180 Q 550 100 700 80" fill="none" stroke="rgba(59, 130, 246, 0.4)" stroke-width="4.5" stroke-dasharray="12 320" stroke-linecap="round" class="beam-flow-2" />
    <path d="M 400 180 Q 540 220 680 250" fill="none" stroke="rgba(139, 92, 246, 0.4)" stroke-width="4.5" stroke-dasharray="12 320" stroke-linecap="round" class="beam-flow-3" />
    <path d="M 400 180 Q 260 220 120 250" fill="none" stroke="rgba(234, 179, 8, 0.4)" stroke-width="4.5" stroke-dasharray="12 320" stroke-linecap="round" class="beam-flow-4" />

    <!-- Dispatch Core Lasers (White) -->
    <path d="M 400 180 Q 250 100 100 80" fill="none" stroke="#ffffff" stroke-width="1.8" stroke-dasharray="12 320" stroke-linecap="round" class="beam-flow-1" />
    <path d="M 400 180 Q 550 100 700 80" fill="none" stroke="#ffffff" stroke-width="1.8" stroke-dasharray="12 320" stroke-linecap="round" class="beam-flow-2" />
    <path d="M 400 180 Q 540 220 680 250" fill="none" stroke="#ffffff" stroke-width="1.8" stroke-dasharray="12 320" stroke-linecap="round" class="beam-flow-3" />
    <path d="M 400 180 Q 260 220 120 250" fill="none" stroke="#ffffff" stroke-width="1.8" stroke-dasharray="12 320" stroke-linecap="round" class="beam-flow-4" />

    <!-- Return Glows (Agents -> Claude: Green for Done) -->
    <path d="M 400 180 Q 250 100 100 80" fill="none" stroke="rgba(16, 185, 129, 0.4)" stroke-width="4.5" stroke-dasharray="12 320" stroke-linecap="round" class="beam-flow-1-rev" />
    <path d="M 400 180 Q 550 100 700 80" fill="none" stroke="rgba(16, 185, 129, 0.4)" stroke-width="4.5" stroke-dasharray="12 320" stroke-linecap="round" class="beam-flow-2-rev" />
    <path d="M 400 180 Q 540 220 680 250" fill="none" stroke="rgba(16, 185, 129, 0.4)" stroke-width="4.5" stroke-dasharray="12 320" stroke-linecap="round" class="beam-flow-3-rev" />
    <path d="M 400 180 Q 260 220 120 250" fill="none" stroke="rgba(16, 185, 129, 0.4)" stroke-width="4.5" stroke-dasharray="12 320" stroke-linecap="round" class="beam-flow-4-rev" />

    <!-- Return Core Lasers (White) -->
    <path d="M 400 180 Q 250 100 100 80" fill="none" stroke="#ffffff" stroke-width="1.8" stroke-dasharray="12 320" stroke-linecap="round" class="beam-flow-1-rev" />
    <path d="M 400 180 Q 550 100 700 80" fill="none" stroke="#ffffff" stroke-width="1.8" stroke-dasharray="12 320" stroke-linecap="round" class="beam-flow-2-rev" />
    <path d="M 400 180 Q 540 220 680 250" fill="none" stroke="#ffffff" stroke-width="1.8" stroke-dasharray="12 320" stroke-linecap="round" class="beam-flow-3-rev" />
    <path d="M 400 180 Q 260 220 120 250" fill="none" stroke="#ffffff" stroke-width="1.8" stroke-dasharray="12 320" stroke-linecap="round" class="beam-flow-4-rev" />
  </g>


  <!-- ==================== CLAUDE CRAB (CENTER) ==================== -->
  <g class="claude-crab-group">
    <!-- Legs (Spacings match official logo) -->
    <rect x="-32" y="16" width="8" height="16" fill="#d97757" />
    <rect x="-16" y="16" width="8" height="16" fill="#d97757" />
    <rect x="8" y="16" width="8" height="16" fill="#d97757" />
    <rect x="24" y="16" width="8" height="16" fill="#d97757" />

    <!-- Ears (top corners, like the reference) -->
    <rect x="-40" y="-32" width="16" height="8" fill="#d97757" />
    <rect x="24" y="-32" width="16" height="8" fill="#d97757" />

    <!-- Main Body (Official 10x5 pixel block) -->
    <rect x="-40" y="-24" width="80" height="40" fill="#d97757" />

    <!-- Eyes (solid black squares, like the reference) -->
    <g class="eye-group">
      <rect x="-22" y="-14" width="9" height="12" fill="#07090e" />
      <rect x="13" y="-14" width="9" height="12" fill="#07090e" />
    </g>

    <!-- Happy Blush Pixels (visible during celebration success) -->
    <rect x="-32" y="0" width="8" height="8" fill="#ff8da1" class="claude-blush" />
    <rect x="24" y="0" width="8" height="8" fill="#ff8da1" class="claude-blush" />
  </g>


  <!-- ==================== CLAUDE DIALOGUE BUBBLES ==================== -->

  <!-- Claude Bubble 1: read server.py -->
  <g class="claude-bubble-cmd-1" filter="url(#soft-shadow)">
    <path d="M 285 70 L 515 70 C 520 70, 520 94, 515 94 L 415 94 L 400 106 L 385 94 L 285 94 C 280 94, 280 70, 285 70 Z" 
          fill="#ffffff" stroke="#06b6d4" stroke-width="1.5" />
    <circle cx="336" cy="82" r="2.5" fill="#06b6d4" class="rec-dot" />
    <text x="347" y="82" text-anchor="start" dominant-baseline="central" fill="#1e293b" font-family="ui-monospace, 'Cascadia Mono', monospace" font-size="9.5" font-weight="bold">agy-1: read server.py</text>
  </g>

  <!-- Claude Bubble 2: compile server.py -->
  <g class="claude-bubble-cmd-2" filter="url(#soft-shadow)">
    <path d="M 285 70 L 515 70 C 520 70, 520 94, 515 94 L 415 94 L 400 106 L 385 94 L 285 94 C 280 94, 280 70, 285 70 Z" 
          fill="#ffffff" stroke="#3b82f6" stroke-width="1.5" />
    <circle cx="328" cy="82" r="2.5" fill="#3b82f6" class="rec-dot" />
    <text x="338" y="82" text-anchor="start" dominant-baseline="central" fill="#1e293b" font-family="ui-monospace, 'Cascadia Mono', monospace" font-size="9.5" font-weight="bold">agy-2: compile server.py</text>
  </g>

  <!-- Claude Bubble 3: write changes -->
  <g class="claude-bubble-cmd-3" filter="url(#soft-shadow)">
    <path d="M 285 70 L 515 70 C 520 70, 520 94, 515 94 L 415 94 L 400 106 L 385 94 L 285 94 C 280 94, 280 70, 285 70 Z" 
          fill="#ffffff" stroke="#8b5cf6" stroke-width="1.5" />
    <circle cx="342" cy="82" r="2.5" fill="#8b5cf6" class="rec-dot" />
    <text x="352" y="82" text-anchor="start" dominant-baseline="central" fill="#1e293b" font-family="ui-monospace, 'Cascadia Mono', monospace" font-size="9.5" font-weight="bold">agy-3: write changes</text>
  </g>

  <!-- Claude Bubble 4: run tests -->
  <g class="claude-bubble-cmd-4" filter="url(#soft-shadow)">
    <path d="M 285 70 L 515 70 C 520 70, 520 94, 515 94 L 415 94 L 400 106 L 385 94 L 285 94 C 280 94, 280 70, 285 70 Z" 
          fill="#ffffff" stroke="#eab308" stroke-width="1.5" />
    <circle cx="350" cy="82" r="2.5" fill="#eab308" class="rec-dot" />
    <text x="361" y="82" text-anchor="start" dominant-baseline="central" fill="#1e293b" font-family="ui-monospace, 'Cascadia Mono', monospace" font-size="9.5" font-weight="bold">agy-4: run tests</text>
  </g>

  <!-- Claude Bubble 5: Success Message -->
  <g class="claude-bubble-success" filter="url(#soft-shadow)">
    <path d="M 285 70 L 515 70 C 520 70, 520 94, 515 94 L 415 94 L 400 106 L 385 94 L 285 94 C 280 94, 280 70, 285 70 Z" 
          fill="#ffffff" stroke="#10b981" stroke-width="1.8" />
    <circle cx="310" cy="82" r="2.5" fill="#10b981" class="rec-dot" />
    <text x="321" y="82" text-anchor="start" dominant-baseline="central" fill="#10b981" font-family="ui-monospace, 'Cascadia Mono', monospace" font-size="9.5" font-weight="bold">Success! All tests passed! 🎉</text>
  </g>


  <!-- ==================== ANTIGRAVITY AGENTS (SEQUENTIAL MOVEMENT) ==================== -->

  <!-- Agent 1 (Top-Left) -->
  <g class="agent1">
    <!-- Hover bobbing group -->
    <g class="agent-hover-1">
      <circle cx="0" cy="5" r="20" fill="#06b6d4" class="agent1-glow" filter="url(#glow-blur)" />
      <use href="#rainbow-agent" />
      
      <!-- Dialogue work bubble -->
      <g class="agent1-work" filter="url(#soft-shadow)">
        <path d="M -55,-58 L 55,-58 A 3,3 0 0 1 58,-55 L 58,-37 A 3,3 0 0 1 55,-34 L 8,-34 L 0,-27 L -8,-34 L -55,-34 A 3,3 0 0 1 -58,-37 L -58,-55 A 3,3 0 0 1 -55,-58 Z" 
              fill="#ffffff" stroke="#06b6d4" stroke-width="1.5" />
        <text x="0" y="-46" text-anchor="middle" dominant-baseline="central" fill="#1e293b" font-family="ui-monospace, monospace" font-size="9" font-weight="bold">📂 Reading...</text>
      </g>
      
      <!-- Dialogue done bubble -->
      <g class="agent1-done" filter="url(#soft-shadow)">
        <path d="M -25,-58 L 25,-58 A 3,3 0 0 1 28,-55 L 28,-37 A 3,3 0 0 1 25,-34 L 8,-34 L 0,-27 L -8,-34 L -25,-34 A 3,3 0 0 1 -28,-37 L -28,-55 A 3,3 0 0 1 -25,-58 Z" 
              fill="#ffffff" stroke="#10b981" stroke-width="1.5" />
        <text x="0" y="-46" text-anchor="middle" dominant-baseline="central" fill="#10b981" font-family="ui-monospace, monospace" font-size="9" font-weight="bold">Done! ✓</text>
      </g>
    </g>
  </g>

  <!-- Agent 2 (Top-Right) -->
  <g class="agent2">
    <g class="agent-hover-2">
      <circle cx="0" cy="5" r="20" fill="#4f7cf7" class="agent2-glow" filter="url(#glow-blur)" />
      <use href="#codex-agent" />
      
      <!-- Dialogue work bubble -->
      <g class="agent2-work" filter="url(#soft-shadow)">
        <path d="M -55,-58 L 55,-58 A 3,3 0 0 1 58,-55 L 58,-37 A 3,3 0 0 1 55,-34 L 8,-34 L 0,-27 L -8,-34 L -55,-34 A 3,3 0 0 1 -58,-37 L -58,-55 A 3,3 0 0 1 -55,-58 Z" 
              fill="#ffffff" stroke="#3b82f6" stroke-width="1.5" />
        <text x="0" y="-46" text-anchor="middle" dominant-baseline="central" fill="#1e293b" font-family="ui-monospace, monospace" font-size="9" font-weight="bold">⚙️ Compiling...</text>
      </g>
      
      <!-- Dialogue done bubble -->
      <g class="agent2-done" filter="url(#soft-shadow)">
        <path d="M -25,-58 L 25,-58 A 3,3 0 0 1 28,-55 L 28,-37 A 3,3 0 0 1 25,-34 L 8,-34 L 0,-27 L -8,-34 L -25,-34 A 3,3 0 0 1 -28,-37 L -28,-55 A 3,3 0 0 1 -25,-58 Z" 
              fill="#ffffff" stroke="#10b981" stroke-width="1.5" />
        <text x="0" y="-46" text-anchor="middle" dominant-baseline="central" fill="#10b981" font-family="ui-monospace, monospace" font-size="9" font-weight="bold">Done! ✓</text>
      </g>
    </g>
  </g>

  <!-- Agent 3 (Bottom-Right) -->
  <g class="agent3">
    <g class="agent-hover-3">
      <circle cx="0" cy="5" r="20" fill="#8b5cf6" class="agent3-glow" filter="url(#glow-blur)" />
      <use href="#rainbow-agent" />
      
      <!-- Dialogue work bubble -->
      <g class="agent3-work" filter="url(#soft-shadow)">
        <path d="M -55,-58 L 55,-58 A 3,3 0 0 1 58,-55 L 58,-37 A 3,3 0 0 1 55,-34 L 8,-34 L 0,-27 L -8,-34 L -55,-34 A 3,3 0 0 1 -58,-37 L -58,-55 A 3,3 0 0 1 -55,-58 Z" 
              fill="#ffffff" stroke="#8b5cf6" stroke-width="1.5" />
        <text x="0" y="-46" text-anchor="middle" dominant-baseline="central" fill="#1e293b" font-family="ui-monospace, monospace" font-size="9" font-weight="bold">💾 Writing changes</text>
      </g>
      
      <!-- Dialogue done bubble -->
      <g class="agent3-done" filter="url(#soft-shadow)">
        <path d="M -25,-58 L 25,-58 A 3,3 0 0 1 28,-55 L 28,-37 A 3,3 0 0 1 25,-34 L 8,-34 L 0,-27 L -8,-34 L -25,-34 A 3,3 0 0 1 -28,-37 L -28,-55 A 3,3 0 0 1 -25,-58 Z" 
              fill="#ffffff" stroke="#10b981" stroke-width="1.5" />
        <text x="0" y="-46" text-anchor="middle" dominant-baseline="central" fill="#10b981" font-family="ui-monospace, monospace" font-size="9" font-weight="bold">Saved! ✓</text>
      </g>
    </g>
  </g>

  <!-- Agent 4 (Bottom-Left) -->
  <g class="agent4">
    <g class="agent-hover-4">
      <circle cx="0" cy="5" r="20" fill="#6366f1" class="agent4-glow" filter="url(#glow-blur)" />
      <use href="#codex-agent" />
      
      <!-- Dialogue work bubble -->
      <g class="agent4-work" filter="url(#soft-shadow)">
        <path d="M -55,-58 L 55,-58 A 3,3 0 0 1 58,-55 L 58,-37 A 3,3 0 0 1 55,-34 L 8,-34 L 0,-27 L -8,-34 L -55,-34 A 3,3 0 0 1 -58,-37 L -58,-55 A 3,3 0 0 1 -55,-58 Z" 
              fill="#ffffff" stroke="#eab308" stroke-width="1.5" />
        <text x="0" y="-46" text-anchor="middle" dominant-baseline="central" fill="#1e293b" font-family="ui-monospace, monospace" font-size="9" font-weight="bold">🧪 Running tests</text>
      </g>
      
      <!-- Dialogue done bubble -->
      <g class="agent4-done" filter="url(#soft-shadow)">
        <path d="M -25,-58 L 25,-58 A 3,3 0 0 1 28,-55 L 28,-37 A 3,3 0 0 1 25,-34 L 8,-34 L 0,-27 L -8,-34 L -25,-34 A 3,3 0 0 1 -28,-37 L -28,-55 A 3,3 0 0 1 -25,-58 Z" 
              fill="#ffffff" stroke="#10b981" stroke-width="1.5" />
        <text x="0" y="-46" text-anchor="middle" dominant-baseline="central" fill="#10b981" font-family="ui-monospace, monospace" font-size="9" font-weight="bold">Pass! ✓</text>
      </g>
    </g>
  </g>
</svg>
